<?xml version="1.0" encoding="UTF-8" ?>
<!DOCTYPE svg PUBLIC "-//W3C//DTD SVG 1.1//EN" "http://www.w3.org/Graphics/SVG/1.1/DTD/svg11.dtd">
<svg width="982pt" height="978pt" viewBox="0 0 982 978" version="1.1" xmlns="http://www.w3.org/2000/svg">
   <defs>
        <style>
            @keyframes foo {
                100%{
                    fill: rgba(255,255,255,1);
                    stroke-dashoffset: 0;
                }!-- stroke-dashoffset: 0; -->
            }
            @keyframes top {
                70%{
                   transform: translate(-80px, 0);
                   opacity: 1;
                }
                100%{
                   transform: translate(0px, 0);
                   opacity: 1;
                }
            }
            @keyframes bottom {
                70%{
                   transform: translate(80px, 0);
                   opacity: 1;
                }
                100%{
                   transform: translate(0px, 0);
                   opacity: 1;
                }
            }
            .cls-1 {
              stroke: #fff;
              stroke-width: 2px;
              stroke-dasharray: 1000;
              stroke-dashoffset: 1000;
              fill: rgba(255,255,255,0);
              animation: foo 2s ease-in-out 1s forwards;
              width: 56vw;
              margin: 0 auto;
            }
            .top-line{
                fill: #fff;
                transform: translate(-50px, -50px);
                opacity: 0;
                animation: top 2s ease-in-out 1s forwards;
            }
            .bottom-line{
                fill: #fff;
                transform: translate(50px, 50px);
                opacity: 0;
                animation: bottom 2s ease-in-out 1s forwards;
            }
        </style>
    </defs>
<g id="#1e1e1eff">
<path class="cls-1 top-line" d=" M 548.98 331.74 C 576.69 283.86 604.33 235.93 631.98 188.01 C 634.29 189.32 636.60 190.66 638.93 191.98 C 611.28 239.92 583.59 287.82 555.93 335.76 C 553.61 334.42 551.29 333.09 548.98 331.74 Z" />
<path class="cls-1" d=" M 507.38 369.49 C 532.30 371.95 557.54 370.23 582.19 366.04 C 582.46 439.02 582.22 512.01 582.30 584.99 C 582.26 591.40 582.64 598.21 585.92 603.89 C 588.82 608.46 594.57 608.70 599.34 609.63 C 601.28 610.85 599.93 613.72 600.32 615.63 C 590.88 616.61 581.37 615.30 571.91 615.33 C 550.36 613.28 528.79 616.71 507.23 615.78 C 507.18 613.75 507.18 611.72 507.23 609.71 C 511.91 608.93 517.39 608.73 520.72 604.85 C 524.53 599.79 524.73 593.11 525.16 587.04 C 525.20 531.03 525.16 475.02 525.17 419.01 C 525.11 410.01 525.56 400.94 524.05 392.02 C 523.06 387.37 521.66 382.30 517.53 379.42 C 514.74 376.92 510.86 376.78 507.35 376.30 C 507.15 374.02 507.16 371.75 507.38 369.49 Z" />
<path class="cls-1" d=" M 642.29 370.20 C 653.97 365.24 667.46 364.59 679.57 368.37 C 687.26 370.21 694.17 375.94 696.63 383.57 C 698.61 389.08 698.42 395.10 697.39 400.79 C 695.57 408.68 689.33 415.12 681.82 417.90 C 676.24 420.39 670.03 420.23 664.11 421.20 C 655.85 420.40 647.02 420.10 639.92 415.21 C 631.52 410.03 628.00 399.60 628.98 390.13 C 629.74 381.75 634.58 373.84 642.29 370.20 Z" />
<path class="cls-1" d=" M 368.22 389.74 C 379.28 390.43 390.34 390.31 401.40 389.80 C 425.34 451.23 448.99 512.79 472.84 574.27 C 476.57 583.55 479.41 593.41 485.38 601.59 C 488.26 605.59 492.60 608.18 497.23 609.67 C 497.25 611.76 497.27 613.87 497.26 615.98 C 470.85 615.57 444.43 614.10 418.02 615.04 C 407.45 615.42 396.89 615.68 386.32 615.98 C 385.85 613.80 385.91 611.60 386.35 609.43 C 391.07 608.82 395.96 609.09 400.46 607.32 C 403.39 606.43 406.61 605.09 407.60 601.90 C 408.70 596.11 407.24 590.28 405.15 584.89 C 398.46 566.78 392.30 548.46 385.34 530.46 C 364.22 530.63 343.10 530.39 321.98 530.57 L 321.02 530.95 C 315.21 546.31 308.66 561.62 306.04 577.94 C 305.16 586.13 304.43 595.84 310.44 602.38 C 316.78 608.19 325.88 609.36 334.14 609.59 C 334.19 611.73 334.19 613.86 334.18 616.01 C 318.77 615.95 303.40 614.51 287.99 614.80 C 281.25 614.95 274.52 616.11 267.77 615.66 C 267.77 613.59 267.98 611.55 268.35 609.53 C 278.10 607.16 284.58 598.52 289.18 590.17 C 297.42 574.25 302.85 557.09 309.62 540.53 C 327.00 495.57 344.43 450.63 361.83 405.67 C 364.02 400.38 365.74 394.90 368.22 389.74 M 348.41 459.46 C 340.33 480.91 331.87 502.23 323.95 523.75 C 343.61 523.86 363.28 523.83 382.94 523.77 C 379.16 511.65 374.35 499.87 370.21 487.87 C 364.82 473.58 360.09 459.03 354.36 444.89 C 351.89 449.53 350.44 454.61 348.41 459.46 Z" />
<path class="cls-1" d=" M 658.04 450.75 C 670.16 450.61 682.08 448.11 694.12 447.14 C 694.56 495.38 694.06 543.63 694.38 591.87 C 694.89 596.93 695.70 602.76 699.94 606.16 C 703.24 608.98 707.83 608.91 711.88 609.73 C 711.81 611.78 711.77 613.85 711.72 615.91 C 699.80 616.09 687.86 615.56 675.97 614.78 C 656.98 614.19 638.05 616.35 619.06 615.96 C 619.04 613.86 619.03 611.78 619.01 609.70 C 623.55 608.95 628.87 608.80 632.14 605.08 C 635.04 602.05 635.92 597.74 636.33 593.72 C 637.25 582.83 636.63 571.90 636.90 561.00 C 636.80 555.66 636.80 550.33 636.90 545.00 C 636.85 535.00 636.80 525.00 636.90 515.00 C 636.58 501.83 637.36 488.62 636.21 475.48 C 635.70 469.45 633.76 462.89 628.68 459.14 C 626.01 457.02 622.45 457.05 619.24 456.59 C 619.09 454.53 618.98 452.47 618.89 450.41 C 631.92 451.07 644.99 450.97 658.04 450.75 Z" />
<path class="cls-1 bottom-line" d=" M 465.98 640.00 C 468.30 641.32 470.60 642.66 472.93 643.98 C 445.29 691.92 417.59 739.82 389.93 787.76 C 387.61 786.42 385.29 785.08 382.98 783.74 C 410.69 735.86 438.33 687.93 465.98 640.00 Z" />
</g>
</svg>
