<?xml version="1.0" standalone="no"?>
<!DOCTYPE svg PUBLIC "-//W3C//DTD SVG 20010904//EN"
 "http://www.w3.org/TR/2001/REC-SVG-20010904/DTD/svg10.dtd">
<svg version="1.0" xmlns="http://www.w3.org/2000/svg"
 width="1576.000000pt" height="178.000000pt" style="transform: scale(1.035)" viewBox="0 0 1576.000000 178.000000"
 preserveAspectRatio="xMidYMid meet">
<metadata>
Created by potrace 1.15, written by Peter Selinger 2001-2017
</metadata>
<g transform="translate(0.000000,178.000000) scale(0.100000,-0.100000)" fill="rgba(0,0,0,0)"
stroke="#fff" stroke-width="13px">
<path d="M0 890 l0 -890 7880 0 7880 0 0 890 0 890 -7880 0 -7880 0 0 -890z
m7493 370 c31 -17 60 -30 63 -30 3 0 10 14 15 30 7 19 18 30 30 30 18 0 19 -9
19 -145 l0 -145 -24 0 c-21 0 -25 7 -35 59 -23 118 -101 193 -200 193 -145 0
-207 -146 -110 -257 17 -19 83 -67 146 -107 198 -124 260 -195 270 -307 9
-100 -28 -183 -102 -232 -56 -36 -110 -49 -201 -49 -67 0 -89 5 -143 30 -69
33 -91 33 -91 0 0 -15 -7 -20 -25 -20 l-25 0 0 165 0 165 25 0 c20 0 25 -6 30
-37 20 -119 61 -195 126 -236 16 -11 55 -21 86 -24 108 -9 183 56 183 160 0
95 -32 133 -205 245 -120 79 -192 144 -216 197 -25 54 -25 166 0 220 56 124
240 169 384 95z m3251 25 c147 -31 252 -133 302 -294 23 -74 29 -234 11 -318
-45 -209 -173 -338 -368 -372 -85 -14 -190 -56 -163 -65 46 -14 333 -56 384
-56 103 0 177 33 220 97 10 15 20 20 28 15 22 -15 -16 -101 -68 -153 -56 -55
-95 -69 -200 -69 -81 0 -113 10 -319 96 -72 29 -126 46 -145 44 -17 -2 -60 -3
-96 -4 -56 -1 -65 2 -68 18 -6 29 16 36 113 35 74 -1 99 2 140 21 l49 23 -54
14 c-140 36 -247 154 -285 315 -19 81 -19 235 0 317 32 133 121 253 227 305
94 46 179 55 292 31z m-6729 -436 c98 -254 178 -448 190 -458 35 -32 58 -38
103 -29 72 16 72 13 72 445 0 426 1 418 -71 429 -29 5 -39 11 -39 25 0 18 10
19 128 19 l128 0 139 -367 c76 -203 141 -372 145 -376 4 -4 69 161 146 368
l139 375 123 0 c115 0 122 -1 122 -20 0 -14 -7 -20 -21 -20 -23 0 -60 -18 -71
-34 -12 -18 -10 -794 2 -817 7 -11 26 -21 50 -25 30 -5 40 -11 40 -25 0 -18
-11 -19 -175 -19 -164 0 -175 1 -175 19 0 14 10 20 40 25 24 4 43 14 50 26 7
12 9 140 8 370 l-3 352 -149 -402 c-131 -349 -152 -401 -169 -398 -16 2 -50
81 -173 398 -84 217 -155 400 -158 405 -2 6 -5 -150 -5 -346 -1 -405 -3 -395
77 -406 32 -4 42 -10 42 -24 0 -18 -14 -19 -310 -19 -303 0 -310 0 -310 20 0
15 7 20 25 20 32 0 75 20 75 36 0 7 -22 72 -49 146 l-49 133 -155 3 c-140 2
-155 1 -162 -15 -35 -87 -75 -208 -75 -227 0 -38 31 -67 78 -73 32 -4 42 -10
42 -24 0 -18 -10 -19 -135 -19 -123 0 -135 2 -135 18 0 10 14 26 30 35 17 10
39 36 51 58 11 22 87 214 170 427 181 469 165 432 186 432 14 0 53 -91 188
-441z m7604 411 c69 -33 91 -33 91 0 0 15 7 20 26 20 22 0 25 -3 20 -22 -3
-13 -6 -76 -6 -140 0 -108 -2 -118 -19 -118 -14 0 -22 14 -35 68 -31 127 -95
187 -201 187 -98 0 -155 -54 -155 -148 0 -88 24 -114 216 -240 193 -126 244
-192 244 -314 0 -101 -47 -175 -138 -220 -50 -25 -68 -28 -152 -28 -86 0 -101
3 -163 32 l-69 33 -11 -30 c-7 -18 -19 -30 -29 -30 -17 0 -18 13 -18 166 l0
165 22 -3 c19 -2 24 -12 31 -58 8 -58 47 -152 75 -183 32 -36 88 -57 149 -57
107 0 173 63 173 163 0 97 -34 137 -221 259 -176 115 -222 177 -221 299 0 113
55 187 162 220 14 4 57 8 95 8 58 1 81 -4 134 -29z m2391 -392 c90 -233 169
-436 177 -451 8 -16 30 -38 49 -49 19 -11 34 -26 34 -34 0 -12 -27 -14 -162
-12 -136 3 -163 5 -163 18 0 9 13 17 35 20 74 12 74 20 6 200 l-43 115 -159 3
-160 2 -37 -102 c-39 -106 -47 -177 -24 -197 8 -6 31 -14 53 -19 24 -5 40 -14
42 -25 3 -15 -9 -17 -127 -17 -118 0 -131 2 -131 18 0 9 13 24 29 34 16 9 36
27 45 40 11 17 217 539 335 851 6 15 17 27 24 27 9 0 72 -151 177 -422z
m-13463 310 c22 -57 86 -226 143 -376 57 -150 105 -270 108 -268 2 3 66 171
142 373 l137 368 126 3 c119 2 127 1 127 -16 0 -15 -10 -21 -39 -26 -72 -11
-71 -2 -71 -441 0 -214 4 -395 8 -401 11 -18 48 -34 76 -34 19 0 26 -5 26 -20
0 -19 -7 -20 -180 -20 -173 0 -180 1 -180 20 0 15 7 20 29 20 16 0 39 9 52 19
l24 19 3 368 c2 203 1 366 -2 364 -2 -3 -63 -162 -134 -355 -72 -192 -140
-376 -152 -407 -15 -41 -27 -58 -40 -58 -19 0 -10 -21 -226 537 l-109 281 -3
-346 c-1 -232 1 -356 9 -373 11 -29 46 -49 84 -49 18 0 25 -5 25 -20 0 -19 -7
-20 -140 -20 -130 0 -140 1 -140 19 0 14 10 20 39 25 72 11 71 2 71 442 0 438
3 418 -74 431 -26 4 -36 11 -36 24 0 18 10 19 129 19 l129 0 39 -102z m1141
81 c2 -12 -7 -18 -36 -23 -49 -7 -67 -27 -55 -59 13 -37 217 -427 223 -427 11
0 201 395 200 415 0 38 -28 63 -75 71 -35 5 -45 10 -45 25 0 18 9 19 135 19
119 0 135 -2 135 -16 0 -9 -16 -31 -36 -48 -26 -23 -69 -96 -160 -276 l-125
-245 4 -147 c3 -100 8 -152 17 -163 7 -8 30 -18 51 -21 29 -5 39 -11 39 -25 0
-18 -11 -19 -175 -19 -164 0 -175 1 -175 19 0 14 10 20 40 25 24 4 43 14 50
25 5 11 10 78 10 150 l0 130 -147 272 c-109 201 -155 277 -175 288 -16 9 -28
24 -28 34 0 16 12 17 162 15 140 -3 163 -5 166 -19z m1233 -231 c90 -139 194
-300 232 -358 l68 -105 -3 305 c-3 353 -4 354 -83 365 -35 6 -45 11 -45 26 0
18 9 19 140 19 131 0 140 -1 140 -19 0 -13 -10 -21 -34 -25 -18 -4 -42 -16
-52 -27 -18 -20 -19 -46 -22 -460 l-3 -439 -22 0 c-18 0 -71 76 -294 422
l-273 421 0 -370 c0 -421 -2 -409 78 -420 32 -4 42 -10 42 -24 0 -18 -10 -19
-140 -19 -130 0 -140 1 -140 19 0 14 10 20 40 25 70 11 70 12 70 443 0 426 1
418 -71 429 -29 5 -39 11 -39 25 0 18 9 19 124 19 l123 0 164 -252z m3205 221
c-3 -17 -6 -76 -6 -131 0 -97 0 -99 -22 -96 -19 3 -24 12 -31 58 -4 30 -15 70
-25 90 -26 54 -59 65 -194 65 -161 0 -152 13 -156 -225 l-3 -190 44 0 c58 0
102 16 120 44 8 12 20 47 27 79 9 46 15 57 31 57 18 0 19 -8 19 -139 0 -76 3
-166 6 -200 7 -60 7 -61 -18 -61 -22 0 -26 5 -32 46 -8 63 -34 114 -63 125
-13 5 -49 9 -79 9 l-55 0 3 -190 c4 -239 -6 -225 161 -225 110 0 126 2 159 23
43 27 74 86 84 160 6 46 9 52 30 52 l24 0 0 -140 0 -140 -355 0 c-348 0 -355
0 -355 20 0 16 7 20 30 20 19 0 40 9 55 25 l25 24 0 388 c0 437 1 428 -71 439
-29 5 -39 11 -39 25 0 18 15 19 346 19 l347 0 -7 -31z m824 12 c0 -14 -10 -20
-39 -25 -68 -11 -66 4 -66 -436 0 -440 -2 -425 66 -436 29 -5 39 -11 39 -25 0
-18 -11 -19 -180 -19 -169 0 -180 1 -180 19 0 14 10 20 42 24 23 3 48 14 55
23 10 14 13 107 13 414 0 445 4 424 -74 437 -26 4 -36 11 -36 24 0 18 11 19
180 19 169 0 180 -1 180 -19z m1555 -358 c78 -205 144 -375 147 -378 2 -3 68
165 146 372 l141 378 120 3 c116 2 121 2 121 -18 0 -15 -7 -20 -29 -20 -16 0
-39 -9 -52 -19 l-24 -19 -3 -379 c-2 -255 0 -390 8 -415 11 -37 17 -41 75 -50
11 -2 21 -11 23 -21 3 -16 -11 -17 -173 -17 -162 0 -176 1 -173 17 2 10 12 19
23 21 58 9 64 13 75 50 7 24 10 157 8 390 l-3 352 -155 -417 c-105 -282 -160
-419 -171 -421 -11 -2 -52 92 -169 395 -84 219 -159 409 -167 423 -11 21 -12
-33 -10 -345 1 -203 6 -377 10 -387 9 -18 47 -35 87 -40 14 -2 26 -11 28 -20
3 -16 -9 -18 -138 -18 -128 0 -141 2 -138 17 2 10 17 20 38 24 72 15 70 5 70
445 0 381 -1 395 -20 414 -11 11 -33 20 -49 20 -17 0 -33 5 -36 10 -15 25 11
31 128 28 l121 -3 141 -372z m1113 360 c-2 -12 -16 -20 -42 -24 -69 -11 -68
-5 -64 -379 3 -289 6 -341 21 -380 34 -86 86 -120 185 -120 75 0 118 15 161
54 74 68 91 162 91 504 0 280 -5 300 -77 316 -31 7 -43 15 -43 28 0 16 11 18
136 18 122 0 135 -2 132 -17 -2 -10 -17 -20 -37 -24 -67 -14 -65 -6 -72 -362
-4 -206 -11 -336 -19 -362 -45 -149 -157 -224 -321 -212 -128 8 -208 57 -259
156 -30 60 -40 176 -40 467 0 261 -1 275 -20 294 -11 11 -33 20 -49 20 -31 0
-47 13 -36 30 4 6 75 10 181 10 161 0 175 -1 172 -17z m2647 -3 c0 -9 -14 -17
-39 -21 -22 -4 -45 -15 -53 -25 -19 -26 -19 -802 0 -828 8 -10 31 -21 53 -25
26 -4 40 -12 42 -24 3 -16 -11 -17 -178 -17 -167 0 -181 1 -178 17 2 12 16 20
42 24 22 4 45 15 53 25 10 14 13 100 13 416 0 385 -1 399 -20 418 -11 11 -33
20 -49 20 -17 0 -33 5 -36 10 -16 26 12 30 178 28 144 -3 172 -5 172 -18z
m847 13 c2 -5 2 -70 0 -145 -3 -122 -6 -138 -21 -138 -13 0 -20 16 -29 73 -22
131 -59 166 -182 174 l-80 6 0 -400 c0 -257 4 -411 11 -431 11 -31 41 -49 94
-54 19 -2 31 -9 33 -21 3 -16 -12 -17 -203 -17 -191 0 -206 1 -203 18 2 11 14
18 33 20 58 6 84 22 95 61 6 21 10 196 10 430 l0 394 -81 -6 c-58 -4 -90 -11
-108 -24 -37 -27 -68 -94 -76 -163 -6 -49 -10 -60 -25 -60 -16 0 -18 13 -22
138 -2 75 -2 140 0 145 2 4 171 7 377 7 206 0 375 -3 377 -7z m1518 -13 c0
-15 -7 -20 -28 -20 -15 0 -38 -7 -50 -16 l-22 -15 0 -409 0 -409 22 -15 c28
-20 210 -22 271 -4 58 17 93 70 108 164 11 60 16 74 31 74 16 0 18 -11 18
-107 0 -60 3 -125 6 -146 l7 -37 -357 0 c-334 0 -357 1 -354 17 2 12 16 20 41
24 21 3 43 11 50 18 17 17 23 783 7 822 -12 27 -35 39 -77 39 -22 0 -31 19
-16 33 3 4 82 7 175 7 161 0 168 -1 168 -20z m790 0 c0 -15 -7 -20 -28 -20
-15 0 -38 -7 -50 -16 l-22 -15 0 -409 0 -409 22 -15 c12 -9 35 -16 50 -16 21
0 28 -5 28 -20 0 -19 -7 -20 -176 -20 -161 0 -175 1 -172 17 2 12 16 20 41 24
21 3 43 11 50 18 17 17 23 783 7 822 -12 27 -35 39 -77 39 -22 0 -31 19 -16
33 3 4 82 7 175 7 161 0 168 -1 168 -20z"/>
<path d="M10539 1240 c-76 -40 -139 -136 -170 -260 -21 -83 -18 -300 5 -375
43 -142 115 -232 210 -260 155 -46 292 86 331 319 12 73 6 252 -10 317 -33
128 -105 229 -187 264 -51 21 -134 19 -179 -5z"/>
<path d="M3711 912 c-35 -92 -66 -173 -68 -179 -4 -10 26 -13 131 -13 75 0
136 3 136 7 0 10 -122 337 -129 345 -3 4 -35 -68 -70 -160z"/>
<path d="M13717 918 c-36 -95 -69 -181 -73 -190 -6 -17 5 -18 135 -18 113 0
141 3 141 14 0 12 -126 356 -134 363 -1 2 -33 -75 -69 -169z"/>
</g>
</svg>
